<svg version="1.1" xmlns="http://www.w3.org/2000/svg" viewBox="0 0 470 217.67819392226983" width="470" height="217.67819392226983">
  <!-- svg-source:excalidraw -->
  
  <defs>
    <style>
      @font-face {
        font-family: "Virgil";
        src: url("https://excalidraw.com/Virgil.woff2");
      }
      @font-face {
        font-family: "Cascadia";
        src: url("https://excalidraw.com/Cascadia.woff2");
      }
    </style>
  </defs>
  <rect x="0" y="0" width="470" height="217.67819392226983" fill="#ffffff"></rect><g stroke-linecap="round" transform="translate(10 10) rotate(0 75 30)"><path d="M-0.27 -1.61 C28.09 -0.58, 62.12 2.09, 148.64 1.23 M0.13 -0.54 C51.22 0.11, 100.2 -0.85, 150.96 0.28 M149.67 -0.94 C150.39 22.04, 151.54 43.95, 151.05 59.06 M150.77 -0.93 C149.49 15.36, 149.84 28.48, 149.69 60.22 M149.28 60.66 C95.96 58.59, 41.47 60.23, 1.65 61.65 M150.66 60.63 C91.52 60.05, 33.21 60.9, 0.89 59.18 M1.94 61.85 C0.33 44.31, -0.91 26.29, 1.18 1.39 M0.8 60.82 C-0.89 37.01, -0.28 15.76, -0.93 -0.2" stroke="#1971c2" stroke-width="1" fill="none"></path></g><g transform="translate(55.239990234375 30) rotate(0 27.639976501464844 10)"><text x="27.639976501464844" y="NaN" font-family="Virgil, Segoe UI Emoji" font-size="20px" fill="#1971c2" text-anchor="middle" style="white-space: pre;" direction="ltr">Kunde</text></g><g stroke-linecap="round" transform="translate(310 10) rotate(0 75 30)"><path d="M1.44 0.32 C31.45 1.14, 61 2.02, 151.05 -1.98 M0.84 -0.01 C56.51 1.44, 113.18 1.34, 149.8 -0.21 M148.74 -0.44 C148.03 22.6, 150.57 44.87, 149.84 61.33 M149.36 -0.53 C149.15 21.85, 149.55 44.95, 150.5 60.93 M151.39 60.23 C89.31 58.17, 28.7 58.73, 1.32 60.84 M150.77 60.34 C98.57 60.92, 47.26 61.23, 0.77 59.27 M0.5 61.29 C-0.82 42.83, 2.48 29.81, -1.64 -1.02 M-0.77 60.82 C0.02 42.05, -0.36 22.65, -0.04 -0.22" stroke="#1971c2" stroke-width="1" fill="none"></path></g><g transform="translate(348.96998596191406 30) rotate(0 49.909950256347656 10)"><text x="49.909950256347656" y="NaN" font-family="Virgil, Segoe UI Emoji" font-size="20px" fill="#1971c2" text-anchor="middle" style="white-space: pre;" direction="ltr">Bestellung</text></g><g stroke-linecap="round"><g transform="translate(310 40) rotate(0 -75 0)"><path d="M0.09 -0.51 C-24.89 -0.57, -125.94 0.39, -151.05 0.45 M-1.32 -1.82 C-25.83 -2.32, -123.83 -1.92, -148.89 -1.44" stroke="#000000" stroke-width="1" fill="none"></path></g><g transform="translate(310 40) rotate(0 -75 0)"><path d="M-121.65 -13.74 C-125.62 -10.88, -132.25 -9.67, -149.43 -2.64 M-121.27 -11.47 C-126.38 -10.06, -133.29 -6.98, -148.25 -2.15" stroke="#000000" stroke-width="1" fill="none"></path></g><g transform="translate(310 40) rotate(0 -75 0)"><path d="M-121.45 6.78 C-125.6 5.52, -132.27 2.62, -149.43 -2.64 M-121.06 9.05 C-126.07 5.93, -133.03 4.48, -148.25 -2.15" stroke="#000000" stroke-width="1" fill="none"></path></g></g><g transform="translate(199.75 16.916671752929688) rotate(0 4.269996643066406 12.5)"><text x="0" y="NaN" font-family="Segoe UI Emoji" font-size="20px" fill="#1e1e1e" text-anchor="start" style="white-space: pre;" direction="ltr">1</text></g><g transform="translate(260.8313903808594 13.684249877929688) rotate(0 5.2599945068359375 12.5)"><text x="0" y="NaN" font-family="Segoe UI Emoji" font-size="20px" fill="#1e1e1e" text-anchor="start" style="white-space: pre;" direction="ltr">n</text></g><g stroke-linecap="round" transform="translate(102.1851843473035 88.84849408391955) rotate(0 133.48186090925194 59.41484991917514)"><path d="M-0.96 0.81 C87.77 -0.35, 173.7 -0.44, 267.69 -1.51 M0.37 0.58 C102.92 -0.27, 204.92 0.67, 266.41 0.25 M265.8 -0.63 C266.47 34.37, 267.13 69.43, 266.06 120.36 M267.77 -0.11 C268.14 32.06, 266.53 64.84, 266.78 119.42 M266.62 120.27 C181.95 120.62, 94.49 120.82, -1.07 117.99 M267.18 118.93 C195.35 117.12, 123.45 116.95, 0.6 118.3 M0.52 120.53 C-0.87 82.48, -1.29 48.54, 1.98 0.39 M0.17 118.38 C1.61 86.71, 1.05 56.84, -0.21 0.95" stroke="#1e1e1e" stroke-width="2" fill="none"></path></g><g transform="translate(217.9645085004954 96.47818553378647) rotate(0 5.964984716032433 8.782378647328855)"><text x="0" y="NaN" font-family="Segoe UI Emoji" font-size="14.051805835726162px" fill="#1e1e1e" text-anchor="start" style="white-space: pre;" direction="ltr">id</text></g><g transform="translate(242.96597969760643 96.64971636674213) rotate(0 16.18064284150745 8.782378647328855)"><text x="0" y="NaN" font-family="Segoe UI Emoji" font-size="14.051805835726164px" fill="#1e1e1e" text-anchor="start" style="white-space: pre;" direction="ltr">alter</text></g><g stroke-linecap="round"><g transform="translate(101.88787317074463 115.23679742581544) rotate(0 133.99988670494722 0.6986986860136284)"><path d="M-1.14 -0.79 C43.74 -0.27, 223.4 2.12, 268.44 2.54 M0.46 1.4 C45.29 1.67, 222.99 0.72, 267.73 1.02" stroke="#1e1e1e" stroke-width="2" fill="none"></path></g></g><g transform="translate(123.73172339035222 99.90028998555528) rotate(0 16.173615437694792 8.782378647328855)"><text x="0" y="NaN" font-family="Segoe UI Emoji" font-size="14.051805835726164px" fill="#1e1e1e" text-anchor="start" style="white-space: pre;" direction="ltr">name</text></g><g transform="translate(113.66856689605183 129.84914459252786) rotate(0 22.609334362742814 8.782378647328855)"><text x="0" y="NaN" font-family="Segoe UI Emoji" font-size="14.051805835726162px" fill="#1e1e1e" text-anchor="start" style="white-space: pre;" direction="ltr">nicolas</text></g></svg>