<svg version="1.1" xmlns="http://www.w3.org/2000/svg" viewBox="0 0 470 80" width="470" height="80">
  <!-- svg-source:excalidraw -->
  
  <defs>
    <style>
      @font-face {
        font-family: "Virgil";
        src: url("https://excalidraw.com/Virgil.woff2");
      }
      @font-face {
        font-family: "Cascadia";
        src: url("https://excalidraw.com/Cascadia.woff2");
      }
    </style>
  </defs>
  <rect x="0" y="0" width="470" height="80" fill="#ffffff"></rect><g stroke-linecap="round" transform="translate(10 10) rotate(0 75 30)"><path d="M-0.27 -1.61 C28.09 -0.58, 62.12 2.09, 148.64 1.23 M0.13 -0.54 C51.22 0.11, 100.2 -0.85, 150.96 0.28 M149.67 -0.94 C150.39 22.04, 151.54 43.95, 151.05 59.06 M150.77 -0.93 C149.49 15.36, 149.84 28.48, 149.69 60.22 M149.28 60.66 C95.96 58.59, 41.47 60.23, 1.65 61.65 M150.66 60.63 C91.52 60.05, 33.21 60.9, 0.89 59.18 M1.94 61.85 C0.33 44.31, -0.91 26.29, 1.18 1.39 M0.8 60.82 C-0.89 37.01, -0.28 15.76, -0.93 -0.2" stroke="#1971c2" stroke-width="1" fill="none"></path></g><g transform="translate(55.239990234375 30) rotate(0 27.639976501464844 10)"><text x="27.639976501464844" y="NaN" font-family="Virgil, Segoe UI Emoji" font-size="20px" fill="#1971c2" text-anchor="middle" style="white-space: pre;" direction="ltr">Kunde</text></g><g stroke-linecap="round" transform="translate(310 10) rotate(0 75 30)"><path d="M1.44 0.32 C31.45 1.14, 61 2.02, 151.05 -1.98 M0.84 -0.01 C56.51 1.44, 113.18 1.34, 149.8 -0.21 M148.74 -0.44 C148.03 22.6, 150.57 44.87, 149.84 61.33 M149.36 -0.53 C149.15 21.85, 149.55 44.95, 150.5 60.93 M151.39 60.23 C89.31 58.17, 28.7 58.73, 1.32 60.84 M150.77 60.34 C98.57 60.92, 47.26 61.23, 0.77 59.27 M0.5 61.29 C-0.82 42.83, 2.48 29.81, -1.64 -1.02 M-0.77 60.82 C0.02 42.05, -0.36 22.65, -0.04 -0.22" stroke="#1971c2" stroke-width="1" fill="none"></path></g><g transform="translate(348.96998596191406 30) rotate(0 49.909950256347656 10)"><text x="49.909950256347656" y="NaN" font-family="Virgil, Segoe UI Emoji" font-size="20px" fill="#1971c2" text-anchor="middle" style="white-space: pre;" direction="ltr">Bestellung</text></g><g stroke-linecap="round"><g transform="translate(310 40) rotate(0 -75 0)"><path d="M0.09 -0.51 C-24.89 -0.57, -125.94 0.39, -151.05 0.45 M-1.32 -1.82 C-25.83 -2.32, -123.83 -1.92, -148.89 -1.44" stroke="#000000" stroke-width="1" fill="none"></path></g><g transform="translate(310 40) rotate(0 -75 0)"><path d="M-121.65 -13.74 C-125.62 -10.88, -132.25 -9.67, -149.43 -2.64 M-121.27 -11.47 C-126.38 -10.06, -133.29 -6.98, -148.25 -2.15" stroke="#000000" stroke-width="1" fill="none"></path></g><g transform="translate(310 40) rotate(0 -75 0)"><path d="M-121.45 6.78 C-125.6 5.52, -132.27 2.62, -149.43 -2.64 M-121.06 9.05 C-126.07 5.93, -133.03 4.48, -148.25 -2.15" stroke="#000000" stroke-width="1" fill="none"></path></g></g><g transform="translate(199.75 16.916671752929688) rotate(0 4.269996643066406 12.5)"><text x="0" y="NaN" font-family="Segoe UI Emoji" font-size="20px" fill="#1e1e1e" text-anchor="start" style="white-space: pre;" direction="ltr">1</text></g><g transform="translate(260.8313903808594 13.684249877929688) rotate(0 5.2599945068359375 12.5)"><text x="0" y="NaN" font-family="Segoe UI Emoji" font-size="20px" fill="#1e1e1e" text-anchor="start" style="white-space: pre;" direction="ltr">n</text></g></svg>